<svg width="24" height="24" viewBox="0 0 24 24" fill="none" xmlns="http://www.w3.org/2000/svg">
<path d="M3.00003 5C3.00003 4.73478 3.10539 4.48043 3.29293 4.29289C3.48046 4.10536 3.73482 4 4.00003 4H8.00003C8.26525 4 8.5196 4.10536 8.70714 4.29289C8.89468 4.48043 9.00003 4.73478 9.00003 5C9.00003 5.26522 8.89468 5.51957 8.70714 5.70711C8.5196 5.89464 8.26525 6 8.00003 6H4.00003C3.73482 6 3.48046 5.89464 3.29293 5.70711C3.10539 5.51957 3.00003 5.26522 3.00003 5ZM14 4H16C16 4.26522 16.1054 4.51957 16.2929 4.70711C16.4805 4.89464 16.7348 5 17 5C17.2653 5 17.5196 4.89464 17.7071 4.70711C17.8947 4.51957 18 4.26522 18 4V3C18 2.73478 17.8947 2.48043 17.7071 2.29289C17.5196 2.10536 17.2653 2 17 2H14C13.7348 2 13.4805 2.10536 13.2929 2.29289C13.1054 2.48043 13 2.73478 13 3C13 3.26522 13.1054 3.51957 13.2929 3.70711C13.4805 3.89464 13.7348 4 14 4ZM19 12H18.77L18.26 10L19.65 8.81C19.8266 8.68321 19.957 8.50236 20.0216 8.29482C20.0861 8.08728 20.0813 7.86435 20.0078 7.65979C19.9344 7.45523 19.7963 7.28018 19.6144 7.16113C19.4326 7.04208 19.2169 6.98551 19 7H6.00003C5.73482 7 5.48046 7.10536 5.29293 7.29289C5.10539 7.48043 5.00003 7.73478 5.00003 8C5.00003 8.26522 5.10539 8.51957 5.29293 8.70711C5.48046 8.89464 5.73482 9 6.00003 9H16.3L11.3 13.24C11.0985 13.4124 10.9736 13.6578 10.953 13.9222C10.9324 14.1866 11.0176 14.4484 11.19 14.65C11.3624 14.8516 11.6078 14.9764 11.8723 14.997C12.1367 15.0176 12.3985 14.9324 12.6 14.76L16.51 11.41L17.03 13.52C17.0647 13.6621 17.1302 13.7948 17.2218 13.9088C17.3133 14.0229 17.4288 14.1154 17.56 14.18C17.6944 14.244 17.8413 14.2772 17.99 14.2772C18.1388 14.2772 18.2857 14.244 18.42 14.18C18.6066 14.1001 18.801 14.0398 19 14C19.5934 14 20.1734 14.1759 20.6667 14.5056C21.1601 14.8352 21.5446 15.3038 21.7717 15.8519C21.9987 16.4001 22.0581 17.0033 21.9424 17.5853C21.8266 18.1672 21.5409 18.7018 21.1214 19.1213C20.7018 19.5409 20.1672 19.8266 19.5853 19.9424C19.0034 20.0581 18.4002 19.9987 17.852 19.7716C17.3038 19.5446 16.8353 19.1601 16.5056 18.6667C16.176 18.1734 16 17.5933 16 17C15.9997 16.7473 16.03 16.4955 16.09 16.25C16.1351 16.1196 16.1527 15.9812 16.1417 15.8437C16.1307 15.7061 16.0914 15.5723 16.0262 15.4507C15.961 15.3291 15.8713 15.2223 15.7628 15.137C15.6543 15.0518 15.5293 14.9899 15.3957 14.9553C15.2621 14.9207 15.1228 14.9141 14.9865 14.9359C14.8503 14.9578 14.72 15.0076 14.604 15.0823C14.4879 15.1569 14.3885 15.2548 14.3121 15.3697C14.2357 15.4846 14.184 15.6141 14.16 15.75C14.0522 16.1579 13.9984 16.5781 14 17C14 17.9889 14.2933 18.9556 14.8427 19.7779C15.3921 20.6001 16.173 21.241 17.0866 21.6194C18.0002 21.9978 19.0056 22.0969 19.9755 21.9039C20.9454 21.711 21.8363 21.2348 22.5356 20.5355C23.2348 19.8363 23.711 18.9454 23.904 17.9755C24.0969 17.0055 23.9979 16.0002 23.6194 15.0866C23.241 14.173 22.6001 13.3921 21.7779 12.8427C20.9556 12.2932 19.9889 12 19 12ZM7.00003 12.42L7.71003 11.71C7.89834 11.5217 8.00413 11.2663 8.00413 11C8.00413 10.7337 7.89834 10.4783 7.71003 10.29C7.52173 10.1017 7.26634 9.99591 7.00003 9.99591C6.73373 9.99591 6.47834 10.1017 6.29003 10.29L4.29003 12.29C4.15128 12.4306 4.05728 12.6092 4.01991 12.8032C3.98253 12.9972 4.00346 13.1979 4.08003 13.38C4.15506 13.5626 4.28245 13.7189 4.44617 13.8293C4.60989 13.9396 4.80261 13.999 5.00003 14C5.56091 14.001 6.11028 14.1592 6.58578 14.4566C7.06129 14.7541 7.44388 15.1789 7.69014 15.6828C7.9364 16.1867 8.03646 16.7496 7.97897 17.3075C7.92147 17.8654 7.70872 18.3961 7.36487 18.8392C7.02101 19.2823 6.55983 19.6201 6.03365 19.8144C5.50748 20.0086 4.93739 20.0514 4.3881 19.938C3.83882 19.8246 3.33232 19.5595 2.92611 19.1727C2.51991 18.7859 2.23025 18.2931 2.09003 17.75C2.02996 17.5045 1.99974 17.2527 2.00003 17C1.99945 16.4736 2.1374 15.9562 2.40003 15.5C2.47239 15.3862 2.52097 15.2589 2.54286 15.1258C2.56475 14.9927 2.55949 14.8566 2.52741 14.7256C2.49532 14.5946 2.43707 14.4715 2.35615 14.3636C2.27523 14.2557 2.17333 14.1652 2.05656 14.0978C1.9398 14.0303 1.81059 13.9871 1.6767 13.9708C1.54282 13.9546 1.40703 13.9655 1.2775 14.0031C1.14797 14.0407 1.02738 14.1041 0.922987 14.1895C0.818592 14.2749 0.73255 14.3805 0.670035 14.5C0.231149 15.2601 7.32996e-05 16.1223 3.46813e-05 17C-0.00156569 17.4219 0.0522273 17.8421 0.160035 18.25C0.371478 19.0714 0.788389 19.8255 1.37155 20.4413C1.95471 21.0572 2.68495 21.5146 3.49357 21.7705C4.3022 22.0264 5.16263 22.0724 5.99394 21.9042C6.82524 21.7359 7.60008 21.359 8.24557 20.8088C8.89107 20.2586 9.386 19.5533 9.68381 18.7591C9.98162 17.965 10.0725 17.1081 9.94795 16.2692C9.82338 15.4302 9.48745 14.6367 8.97175 13.9634C8.45605 13.29 7.77754 12.7589 7.00003 12.42Z" fill="white"/>
</svg>
