<svg width="25" height="25" viewBox="0 0 25 25" fill="none" xmlns="http://www.w3.org/2000/svg">
<mask id="path-1-outside-1_28_73" maskUnits="userSpaceOnUse" x="0" y="0" width="25" height="25" fill="black">
<rect fill="white" width="25" height="25"/>
<path d="M1.3802 5.90325C1.2511 5.95938 1.1408 6.05281 1.07171 6.17663C1.06832 6.1825 1.06515 6.18838 1.06198 6.19446C1.05541 6.20743 1.04929 6.22081 1.0434 6.23418C1.01237 6.30835 0.998556 6.38455 1.00014 6.45954V10.6841C1.00014 11.0185 1.3032 11.2894 1.67669 11.2894C2.05018 11.2894 2.35323 11.0185 2.35323 10.6841V7.42663L5.43287 8.80451C5.76718 8.95407 6.17349 8.83288 6.34042 8.53376C6.50757 8.23484 6.37213 7.87125 6.03805 7.72173L3.18918 6.44746L6.03805 5.17298C6.37213 5.02342 6.50758 4.65986 6.34042 4.36095C6.17349 4.06204 5.76716 3.94085 5.43287 4.0902L1.3802 5.90325ZM1.00014 18.5407C0.998104 18.6294 1.01803 18.72 1.06197 18.8057C1.09527 18.8702 1.1408 18.9292 1.19696 18.9796C1.25381 19.0303 1.31474 19.0684 1.3802 19.097L5.43291 20.9099C5.76722 21.0595 6.17353 20.9383 6.34046 20.6394C6.50761 20.3402 6.37217 19.9767 6.03809 19.8273L3.18922 18.5529L6.03809 17.2784C6.37217 17.129 6.50762 16.7655 6.34046 16.4663C6.17353 16.1674 5.7672 16.0462 5.43291 16.1958L2.35327 17.5735V14.316C2.35327 13.9818 2.05022 13.7109 1.67673 13.7109C1.30324 13.7109 1.00018 13.9818 1.00018 14.316L1.00014 18.5407ZM21.8108 18.5528L18.9621 19.8273C18.6278 19.9767 18.4924 20.3402 18.6595 20.6393C18.8267 20.9382 19.233 21.0594 19.5671 20.9099L23.6198 19.0969C23.7489 19.0406 23.8592 18.9474 23.9285 18.8236C23.9317 18.8177 23.9348 18.8116 23.938 18.8057C23.9446 18.7927 23.9509 18.7794 23.9566 18.766C23.9878 18.6918 24.0017 18.6156 23.9998 18.5406V14.3159C23.9998 13.9817 23.697 13.7107 23.3233 13.7107C22.9498 13.7107 22.647 13.9817 22.647 14.3159V17.5733L19.5671 16.1957C19.233 16.0461 18.8267 16.1673 18.6596 16.4662C18.4924 16.7653 18.6279 17.1289 18.9622 17.2782L21.8108 18.5528ZM22.647 7.42667V10.6842C22.647 11.0185 22.9498 11.2895 23.3233 11.2895C23.697 11.2895 23.9999 11.0185 23.9999 10.6842V6.45957C24.0019 6.37061 23.9822 6.28022 23.938 6.1945C23.905 6.13005 23.8592 6.07108 23.803 6.02062C23.7462 5.96995 23.6855 5.93186 23.6198 5.90328L19.5671 4.09013C19.233 3.94077 18.8266 4.06196 18.6595 4.36088C18.4924 4.6598 18.6278 5.02339 18.9621 5.17291L21.8108 6.44739L18.9621 7.72166C18.6278 7.87122 18.4924 8.23478 18.6595 8.53368C18.8267 8.8328 19.233 8.95399 19.5671 8.80444L22.647 7.42667ZM12.8148 1.06931C12.7208 1.02492 12.6137 1 12.5002 1C12.3865 1 12.2794 1.02493 12.1854 1.06931L8.13884 2.87965C7.80476 3.02921 7.66932 3.39278 7.83624 3.69168C8.0034 3.99059 8.40973 4.11179 8.74379 3.96243L11.8237 2.58455V5.84204C11.8237 6.17622 12.1265 6.44737 12.5002 6.44737C12.8737 6.44737 13.1765 6.17622 13.1765 5.84204V2.58455L16.2564 3.96243C16.5905 4.11179 16.9968 3.9906 17.1639 3.69168C17.3311 3.39276 17.1957 3.02917 16.8613 2.87965L12.8148 1.06931ZM12.1854 23.9307C12.2794 23.9749 12.3866 24 12.5003 24C12.6137 24 12.7209 23.9749 12.8149 23.9307L16.8614 22.1203C17.1957 21.9708 17.3312 21.6072 17.164 21.3083C16.9969 21.0092 16.5906 20.888 16.2565 21.0376L13.1766 22.4154V19.158C13.1766 18.8236 12.8738 18.5526 12.5003 18.5526C12.1266 18.5526 11.8238 18.8236 11.8238 19.158V22.4154L8.74388 21.0376C8.4098 20.888 8.00344 21.0092 7.83634 21.3083C7.66941 21.6072 7.80485 21.9708 8.13894 22.1203L12.1854 23.9307ZM11.8237 11.6637V14.9212C11.8237 15.2554 12.1266 15.5265 12.5003 15.5265C12.8738 15.5265 13.1766 15.2554 13.1766 14.9212V11.6637L16.8614 10.0151C17.1958 9.86575 17.3312 9.50219 17.164 9.20309C16.9969 8.90417 16.5906 8.78298 16.2565 8.93254L12.5003 10.613L8.74389 8.93254C8.40982 8.78298 8.00346 8.90417 7.83635 9.20309C7.66942 9.5022 7.80486 9.86575 8.13895 10.0151L11.8237 11.6637Z"/>
</mask>
<path d="M1.3802 5.90325C1.2511 5.95938 1.1408 6.05281 1.07171 6.17663C1.06832 6.1825 1.06515 6.18838 1.06198 6.19446C1.05541 6.20743 1.04929 6.22081 1.0434 6.23418C1.01237 6.30835 0.998556 6.38455 1.00014 6.45954V10.6841C1.00014 11.0185 1.3032 11.2894 1.67669 11.2894C2.05018 11.2894 2.35323 11.0185 2.35323 10.6841V7.42663L5.43287 8.80451C5.76718 8.95407 6.17349 8.83288 6.34042 8.53376C6.50757 8.23484 6.37213 7.87125 6.03805 7.72173L3.18918 6.44746L6.03805 5.17298C6.37213 5.02342 6.50758 4.65986 6.34042 4.36095C6.17349 4.06204 5.76716 3.94085 5.43287 4.0902L1.3802 5.90325ZM1.00014 18.5407C0.998104 18.6294 1.01803 18.72 1.06197 18.8057C1.09527 18.8702 1.1408 18.9292 1.19696 18.9796C1.25381 19.0303 1.31474 19.0684 1.3802 19.097L5.43291 20.9099C5.76722 21.0595 6.17353 20.9383 6.34046 20.6394C6.50761 20.3402 6.37217 19.9767 6.03809 19.8273L3.18922 18.5529L6.03809 17.2784C6.37217 17.129 6.50762 16.7655 6.34046 16.4663C6.17353 16.1674 5.7672 16.0462 5.43291 16.1958L2.35327 17.5735V14.316C2.35327 13.9818 2.05022 13.7109 1.67673 13.7109C1.30324 13.7109 1.00018 13.9818 1.00018 14.316L1.00014 18.5407ZM21.8108 18.5528L18.9621 19.8273C18.6278 19.9767 18.4924 20.3402 18.6595 20.6393C18.8267 20.9382 19.233 21.0594 19.5671 20.9099L23.6198 19.0969C23.7489 19.0406 23.8592 18.9474 23.9285 18.8236C23.9317 18.8177 23.9348 18.8116 23.938 18.8057C23.9446 18.7927 23.9509 18.7794 23.9566 18.766C23.9878 18.6918 24.0017 18.6156 23.9998 18.5406V14.3159C23.9998 13.9817 23.697 13.7107 23.3233 13.7107C22.9498 13.7107 22.647 13.9817 22.647 14.3159V17.5733L19.5671 16.1957C19.233 16.0461 18.8267 16.1673 18.6596 16.4662C18.4924 16.7653 18.6279 17.1289 18.9622 17.2782L21.8108 18.5528ZM22.647 7.42667V10.6842C22.647 11.0185 22.9498 11.2895 23.3233 11.2895C23.697 11.2895 23.9999 11.0185 23.9999 10.6842V6.45957C24.0019 6.37061 23.9822 6.28022 23.938 6.1945C23.905 6.13005 23.8592 6.07108 23.803 6.02062C23.7462 5.96995 23.6855 5.93186 23.6198 5.90328L19.5671 4.09013C19.233 3.94077 18.8266 4.06196 18.6595 4.36088C18.4924 4.6598 18.6278 5.02339 18.9621 5.17291L21.8108 6.44739L18.9621 7.72166C18.6278 7.87122 18.4924 8.23478 18.6595 8.53368C18.8267 8.8328 19.233 8.95399 19.5671 8.80444L22.647 7.42667ZM12.8148 1.06931C12.7208 1.02492 12.6137 1 12.5002 1C12.3865 1 12.2794 1.02493 12.1854 1.06931L8.13884 2.87965C7.80476 3.02921 7.66932 3.39278 7.83624 3.69168C8.0034 3.99059 8.40973 4.11179 8.74379 3.96243L11.8237 2.58455V5.84204C11.8237 6.17622 12.1265 6.44737 12.5002 6.44737C12.8737 6.44737 13.1765 6.17622 13.1765 5.84204V2.58455L16.2564 3.96243C16.5905 4.11179 16.9968 3.9906 17.1639 3.69168C17.3311 3.39276 17.1957 3.02917 16.8613 2.87965L12.8148 1.06931ZM12.1854 23.9307C12.2794 23.9749 12.3866 24 12.5003 24C12.6137 24 12.7209 23.9749 12.8149 23.9307L16.8614 22.1203C17.1957 21.9708 17.3312 21.6072 17.164 21.3083C16.9969 21.0092 16.5906 20.888 16.2565 21.0376L13.1766 22.4154V19.158C13.1766 18.8236 12.8738 18.5526 12.5003 18.5526C12.1266 18.5526 11.8238 18.8236 11.8238 19.158V22.4154L8.74388 21.0376C8.4098 20.888 8.00344 21.0092 7.83634 21.3083C7.66941 21.6072 7.80485 21.9708 8.13894 22.1203L12.1854 23.9307ZM11.8237 11.6637V14.9212C11.8237 15.2554 12.1266 15.5265 12.5003 15.5265C12.8738 15.5265 13.1766 15.2554 13.1766 14.9212V11.6637L16.8614 10.0151C17.1958 9.86575 17.3312 9.50219 17.164 9.20309C16.9969 8.90417 16.5906 8.78298 16.2565 8.93254L12.5003 10.613L8.74389 8.93254C8.40982 8.78298 8.00346 8.90417 7.83635 9.20309C7.66942 9.5022 7.80486 9.86575 8.13895 10.0151L11.8237 11.6637Z" fill="#191C1F"/>
<path d="M1.3802 5.90325C1.2511 5.95938 1.1408 6.05281 1.07171 6.17663C1.06832 6.1825 1.06515 6.18838 1.06198 6.19446C1.05541 6.20743 1.04929 6.22081 1.0434 6.23418C1.01237 6.30835 0.998556 6.38455 1.00014 6.45954V10.6841C1.00014 11.0185 1.3032 11.2894 1.67669 11.2894C2.05018 11.2894 2.35323 11.0185 2.35323 10.6841V7.42663L5.43287 8.80451C5.76718 8.95407 6.17349 8.83288 6.34042 8.53376C6.50757 8.23484 6.37213 7.87125 6.03805 7.72173L3.18918 6.44746L6.03805 5.17298C6.37213 5.02342 6.50758 4.65986 6.34042 4.36095C6.17349 4.06204 5.76716 3.94085 5.43287 4.0902L1.3802 5.90325ZM1.00014 18.5407C0.998104 18.6294 1.01803 18.72 1.06197 18.8057C1.09527 18.8702 1.1408 18.9292 1.19696 18.9796C1.25381 19.0303 1.31474 19.0684 1.3802 19.097L5.43291 20.9099C5.76722 21.0595 6.17353 20.9383 6.34046 20.6394C6.50761 20.3402 6.37217 19.9767 6.03809 19.8273L3.18922 18.5529L6.03809 17.2784C6.37217 17.129 6.50762 16.7655 6.34046 16.4663C6.17353 16.1674 5.7672 16.0462 5.43291 16.1958L2.35327 17.5735V14.316C2.35327 13.9818 2.05022 13.7109 1.67673 13.7109C1.30324 13.7109 1.00018 13.9818 1.00018 14.316L1.00014 18.5407ZM21.8108 18.5528L18.9621 19.8273C18.6278 19.9767 18.4924 20.3402 18.6595 20.6393C18.8267 20.9382 19.233 21.0594 19.5671 20.9099L23.6198 19.0969C23.7489 19.0406 23.8592 18.9474 23.9285 18.8236C23.9317 18.8177 23.9348 18.8116 23.938 18.8057C23.9446 18.7927 23.9509 18.7794 23.9566 18.766C23.9878 18.6918 24.0017 18.6156 23.9998 18.5406V14.3159C23.9998 13.9817 23.697 13.7107 23.3233 13.7107C22.9498 13.7107 22.647 13.9817 22.647 14.3159V17.5733L19.5671 16.1957C19.233 16.0461 18.8267 16.1673 18.6596 16.4662C18.4924 16.7653 18.6279 17.1289 18.9622 17.2782L21.8108 18.5528ZM22.647 7.42667V10.6842C22.647 11.0185 22.9498 11.2895 23.3233 11.2895C23.697 11.2895 23.9999 11.0185 23.9999 10.6842V6.45957C24.0019 6.37061 23.9822 6.28022 23.938 6.1945C23.905 6.13005 23.8592 6.07108 23.803 6.02062C23.7462 5.96995 23.6855 5.93186 23.6198 5.90328L19.5671 4.09013C19.233 3.94077 18.8266 4.06196 18.6595 4.36088C18.4924 4.6598 18.6278 5.02339 18.9621 5.17291L21.8108 6.44739L18.9621 7.72166C18.6278 7.87122 18.4924 8.23478 18.6595 8.53368C18.8267 8.8328 19.233 8.95399 19.5671 8.80444L22.647 7.42667ZM12.8148 1.06931C12.7208 1.02492 12.6137 1 12.5002 1C12.3865 1 12.2794 1.02493 12.1854 1.06931L8.13884 2.87965C7.80476 3.02921 7.66932 3.39278 7.83624 3.69168C8.0034 3.99059 8.40973 4.11179 8.74379 3.96243L11.8237 2.58455V5.84204C11.8237 6.17622 12.1265 6.44737 12.5002 6.44737C12.8737 6.44737 13.1765 6.17622 13.1765 5.84204V2.58455L16.2564 3.96243C16.5905 4.11179 16.9968 3.9906 17.1639 3.69168C17.3311 3.39276 17.1957 3.02917 16.8613 2.87965L12.8148 1.06931ZM12.1854 23.9307C12.2794 23.9749 12.3866 24 12.5003 24C12.6137 24 12.7209 23.9749 12.8149 23.9307L16.8614 22.1203C17.1957 21.9708 17.3312 21.6072 17.164 21.3083C16.9969 21.0092 16.5906 20.888 16.2565 21.0376L13.1766 22.4154V19.158C13.1766 18.8236 12.8738 18.5526 12.5003 18.5526C12.1266 18.5526 11.8238 18.8236 11.8238 19.158V22.4154L8.74388 21.0376C8.4098 20.888 8.00344 21.0092 7.83634 21.3083C7.66941 21.6072 7.80485 21.9708 8.13894 22.1203L12.1854 23.9307ZM11.8237 11.6637V14.9212C11.8237 15.2554 12.1266 15.5265 12.5003 15.5265C12.8738 15.5265 13.1766 15.2554 13.1766 14.9212V11.6637L16.8614 10.0151C17.1958 9.86575 17.3312 9.50219 17.164 9.20309C16.9969 8.90417 16.5906 8.78298 16.2565 8.93254L12.5003 10.613L8.74389 8.93254C8.40982 8.78298 8.00346 8.90417 7.83635 9.20309C7.66942 9.5022 7.80486 9.86575 8.13895 10.0151L11.8237 11.6637Z" stroke="#191C1F" stroke-width="0.4" mask="url(#path-1-outside-1_28_73)"/>
</svg>
