<svg width="44" height="44" viewBox="0 0 44 44" fill="none" xmlns="http://www.w3.org/2000/svg">
<path d="M43.9996 21.9998C43.9996 16.1651 41.6819 10.5695 37.5561 6.44352C33.4303 2.31774 27.8342 -3.53314e-06 21.9998 -4.80829e-06C16.1654 -6.08345e-06 10.5695 2.31774 6.44352 6.44351C2.31774 10.5693 -3.53306e-06 16.1654 -4.80821e-06 21.9998C-6.08337e-06 27.8342 2.31773 33.4301 6.44351 37.5561C10.5693 41.6819 16.1654 43.9996 21.9998 43.9996C25.8615 43.9996 29.6554 42.9831 33.0002 41.0524C36.3444 39.1214 39.1218 36.344 41.0528 32.9998C42.9835 29.6552 44 25.8613 44 21.9994L43.9996 21.9998ZM22.6372 30.1618C22.2276 29.7497 21.9974 29.1921 21.9974 28.6109C21.9974 28.0297 22.2276 27.4721 22.6372 27.06L25.4974 24.1997L13.1997 24.1997C12.4137 24.1997 11.6874 23.7806 11.2945 23.0999C10.9015 22.4193 10.9015 21.5803 11.2945 20.8997C11.6874 20.219 12.4137 19.7999 13.1997 19.7999L25.4974 19.7999L22.6372 16.9617C22.1521 16.3953 21.9871 15.6218 22.1985 14.9069C22.4099 14.1917 22.9694 13.6326 23.6843 13.4212C24.3995 13.2094 25.173 13.3748 25.7395 13.8598L32.3395 20.4599C32.7491 20.872 32.9792 21.4296 32.9792 22.0108C32.9792 22.592 32.7491 23.1496 32.3395 23.5617L25.7395 30.1617C25.3269 30.5717 24.7697 30.8015 24.1882 30.8015C23.607 30.8015 23.0493 30.5717 22.6372 30.1618Z" fill="#191C1F"/>
</svg>
