<svg width="23" height="26" viewBox="0 0 23 26" fill="none" xmlns="http://www.w3.org/2000/svg">
<path d="M21.5714 6.75003H14.8594L11.5026 0.875963C11.4581 0.79807 11.3753 0.75 11.2856 0.75C11.1959 0.75 11.113 0.798072 11.0685 0.875965L7.7119 6.75003H1.00025C0.91115 6.75003 0.828786 6.79745 0.784048 6.8745C0.73931 6.95155 0.738962 7.04659 0.783133 7.12397L4.13895 13.0027L0.782939 18.8757C0.738725 18.9531 0.739042 19.0481 0.783772 19.1252C0.828503 19.2023 0.910882 19.2497 1 19.2497H7.71187L11.0685 25.124C11.113 25.2019 11.1959 25.25 11.2856 25.25C11.3753 25.25 11.4581 25.2019 11.5027 25.124L14.8593 19.2497H21.5714C21.6605 19.2497 21.7429 19.2023 21.7877 19.1252C21.8324 19.0481 21.8327 18.9531 21.7885 18.8757L18.4307 12.9997L21.7885 7.12408C21.8327 7.0467 21.8324 6.95164 21.7877 6.87455C21.7429 6.79747 21.6605 6.75003 21.5714 6.75003ZM11.7895 13.2917L14.8345 11.5155L11.7895 16.8443V13.2917ZM11.2856 12.4142L8.23529 10.6349H14.3359L11.2856 12.4142ZM7.73631 11.5153L10.7817 13.2917V16.8443L7.73631 11.5153ZM16.2086 11.1452L20.2608 18.2366H12.1562L16.2086 11.1452ZM17.8495 11.9826L16.8955 10.3133L19.7575 8.64378L17.8495 11.9826ZM19.259 7.76315L16.3935 9.43468L15.4383 7.76315H19.259ZM7.23318 9.62177L11.2856 2.53012L15.338 9.62177H7.23318ZM3.31228 7.76315H7.13299L6.17781 9.43469L3.31228 7.76315ZM2.81208 8.64281L5.67576 10.3133L4.72026 11.9854L2.81208 8.64281ZM6.36261 11.1452L10.415 18.2366H2.31037L6.36261 11.1452ZM10.7817 19.2497V22.5879L8.87424 19.2497H10.7817ZM13.6969 19.2497L11.7895 22.5879V19.2497H13.6969Z" fill="white" stroke="white" stroke-width="0.5" stroke-linejoin="round"/>
</svg>
