<svg width="24" height="24" viewBox="0 0 24 24" fill="none" xmlns="http://www.w3.org/2000/svg">
<path d="M23 10.87V16.37C23 17.749 21.878 18.87 20.5 18.87H18.816C18.402 20.031 17.302 20.87 16 20.87C14.698 20.87 13.598 20.031 13.184 18.87H9.816C9.402 20.031 8.302 20.87 7 20.87C5.664 20.87 4.542 19.986 4.155 18.776C2.355 18.387 1 16.786 1 14.87V7C1 4.794 2.794 3 5 3H15C15.552 3 16 3.447 16 4C16 4.553 15.552 5 15 5H5C3.897 5 3 5.897 3 7V14.87C3 15.973 3.897 16.87 5 16.87C5.552 16.87 6 17.317 6 17.87C6 18.422 6.449 18.87 7 18.87C7.551 18.87 8 18.422 8 17.87C8 17.317 8.448 16.87 9 16.87H14C14.552 16.87 15 17.317 15 17.87C15 18.422 15.449 18.87 16 18.87C16.551 18.87 17 18.422 17 17.87C17 17.317 17.448 16.87 18 16.87H20.5C20.776 16.87 21 16.645 21 16.37V10.87L18.526 7.853L16 7.87C15.448 7.87 15 7.423 15 6.87C15 6.317 15.448 5.87 16 5.87H18.54C19.124 5.87 19.678 6.125 20.059 6.569L22.533 9.586C22.829 9.93 23 10.392 23 10.87ZM5 7.87V13.87C5 14.423 5.448 14.87 6 14.87C6.552 14.87 7 14.423 7 13.87V7.87C7 7.317 6.552 6.87 6 6.87C5.448 6.87 5 7.317 5 7.87ZM8 7.87V13.87C8 14.423 8.448 14.87 9 14.87C9.552 14.87 10 14.423 10 13.87V7.87C10 7.317 9.552 6.87 9 6.87C8.448 6.87 8 7.317 8 7.87ZM11 7.87V13.87C11 14.423 11.448 14.87 12 14.87C12.552 14.87 13 14.423 13 13.87V7.87C13 7.317 12.552 6.87 12 6.87C11.448 6.87 11 7.317 11 7.87Z" fill="white"/>
</svg>
